G04 #@! TF.GenerationSoftware,KiCad,Pcbnew,(6.0.0)*
G04 #@! TF.CreationDate,2022-12-30T16:33:39+01:00*
G04 #@! TF.ProjectId,Test Stand PCB,54657374-2053-4746-916e-64205043422e,rev?*
G04 #@! TF.SameCoordinates,Original*
G04 #@! TF.FileFunction,Soldermask,Bot*
G04 #@! TF.FilePolarity,Negative*
%FSLAX46Y46*%
G04 Gerber Fmt 4.6, Leading zero omitted, Abs format (unit mm)*
G04 Created by KiCad (PCBNEW (6.0.0)) date 2022-12-30 16:33:39*
%MOMM*%
%LPD*%
G01*
G04 APERTURE LIST*
%ADD10C,3.200000*%
%ADD11C,1.700000*%
%ADD12R,1.700000X1.700000*%
%ADD13O,1.400000X1.400000*%
%ADD14C,1.400000*%
%ADD15C,3.000000*%
%ADD16R,3.000000X3.000000*%
%ADD17C,1.600000*%
%ADD18R,1.600000X1.600000*%
%ADD19O,1.800000X1.717500*%
%ADD20R,1.800000X1.717500*%
%ADD21O,2.200000X2.200000*%
%ADD22R,2.200000X2.200000*%
G04 APERTURE END LIST*
D10*
X168695000Y-41235000D03*
X168695000Y-106735000D03*
X46645000Y-106735000D03*
X46645000Y-41235000D03*
D11*
X131765000Y-55599000D03*
X129225000Y-55599000D03*
X126685000Y-55599000D03*
X124145000Y-55599000D03*
X121605000Y-55599000D03*
X119065000Y-55599000D03*
X116525000Y-55599000D03*
X113985000Y-55599000D03*
X111445000Y-55599000D03*
D12*
X108905000Y-55599000D03*
D13*
X160015000Y-48735000D03*
D14*
X152395000Y-48735000D03*
D13*
X148265000Y-48645000D03*
D14*
X140645000Y-48645000D03*
D15*
X158565000Y-42545000D03*
D16*
X153485000Y-42545000D03*
D15*
X147015000Y-42545000D03*
D16*
X141935000Y-42545000D03*
D11*
X106149000Y-65110000D03*
X106149000Y-67650000D03*
X106149000Y-70190000D03*
X106149000Y-72730000D03*
X106149000Y-75270000D03*
X106149000Y-77810000D03*
X106149000Y-80350000D03*
D12*
X106149000Y-82890000D03*
D17*
X138650000Y-89136000D03*
X138650000Y-86596000D03*
X138650000Y-84056000D03*
X138650000Y-81516000D03*
X146270000Y-81516000D03*
X146270000Y-84056000D03*
X146270000Y-86596000D03*
D18*
X146270000Y-89136000D03*
D11*
X79905000Y-90250000D03*
X82445000Y-90250000D03*
X84985000Y-90250000D03*
X87525000Y-90250000D03*
X90065000Y-90250000D03*
X92605000Y-90250000D03*
X95145000Y-90250000D03*
X97685000Y-90250000D03*
D12*
X100225000Y-90250000D03*
D11*
X52840000Y-90245000D03*
X55380000Y-90245000D03*
X57920000Y-90245000D03*
X60460000Y-90245000D03*
X63000000Y-90245000D03*
X65540000Y-90245000D03*
X68080000Y-90245000D03*
X70620000Y-90245000D03*
D12*
X73160000Y-90245000D03*
D11*
X73160000Y-57755000D03*
X70620000Y-57755000D03*
X68080000Y-57755000D03*
X65540000Y-57755000D03*
X63000000Y-57755000D03*
X60460000Y-57755000D03*
X57920000Y-57755000D03*
X55380000Y-57755000D03*
D12*
X52840000Y-57755000D03*
D11*
X100160000Y-57755000D03*
X97620000Y-57755000D03*
X95080000Y-57755000D03*
X92540000Y-57755000D03*
X90000000Y-57755000D03*
X87460000Y-57755000D03*
X84920000Y-57755000D03*
X82380000Y-57755000D03*
D12*
X79840000Y-57755000D03*
D11*
X67110000Y-63840000D03*
X69650000Y-63840000D03*
X72190000Y-63840000D03*
X74730000Y-63840000D03*
X77270000Y-63840000D03*
X79810000Y-63840000D03*
X82350000Y-63840000D03*
X84890000Y-63840000D03*
X87430000Y-63840000D03*
X89970000Y-63840000D03*
X92510000Y-63840000D03*
X95050000Y-63840000D03*
X95050000Y-84160000D03*
X92510000Y-84160000D03*
X89970000Y-84160000D03*
X87430000Y-84160000D03*
X84890000Y-84160000D03*
X82350000Y-84160000D03*
X79810000Y-84160000D03*
X77270000Y-84160000D03*
X74730000Y-84160000D03*
X72190000Y-84160000D03*
X69650000Y-84160000D03*
X67110000Y-84160000D03*
X64570000Y-84160000D03*
X62030000Y-84160000D03*
X59490000Y-84160000D03*
D12*
X56950000Y-84160000D03*
D11*
X131865000Y-105640000D03*
X129325000Y-105640000D03*
X126785000Y-105640000D03*
X124245000Y-105640000D03*
X121705000Y-105640000D03*
X119165000Y-105640000D03*
X116625000Y-105640000D03*
X114085000Y-105640000D03*
X111545000Y-105640000D03*
D12*
X109005000Y-105640000D03*
D13*
X153070000Y-91916000D03*
D14*
X153070000Y-99536000D03*
D13*
X149970000Y-99536000D03*
D14*
X149970000Y-91916000D03*
D13*
X153070000Y-81216000D03*
D14*
X153070000Y-88836000D03*
D13*
X149970000Y-88856000D03*
D14*
X149970000Y-81236000D03*
D19*
X156670000Y-93556000D03*
X156670000Y-95846000D03*
D20*
X156670000Y-98136000D03*
D19*
X156670000Y-82646000D03*
X156670000Y-84936000D03*
D20*
X156670000Y-87226000D03*
D15*
X167475000Y-93740000D03*
D16*
X167475000Y-98820000D03*
D15*
X167475000Y-82540000D03*
D16*
X167475000Y-87620000D03*
D21*
X160570000Y-92336000D03*
D22*
X160570000Y-99956000D03*
D21*
X160570000Y-81236000D03*
D22*
X160570000Y-88856000D03*
D13*
X153070000Y-70316000D03*
D14*
X153070000Y-77936000D03*
D13*
X149970000Y-77956000D03*
D14*
X149970000Y-70336000D03*
D13*
X146290000Y-92536000D03*
D14*
X138670000Y-92536000D03*
D13*
X161070000Y-59016000D03*
D14*
X161070000Y-66636000D03*
D21*
X160570000Y-70116000D03*
D22*
X160570000Y-77736000D03*
D19*
X156670000Y-71746000D03*
X156670000Y-74036000D03*
D20*
X156670000Y-76326000D03*
D15*
X167475000Y-71440000D03*
D16*
X167475000Y-76520000D03*
D15*
X167435000Y-54075000D03*
D16*
X167435000Y-48995000D03*
D15*
X141930000Y-105472000D03*
D16*
X157170000Y-105472000D03*
D15*
X147010000Y-105472000D03*
X152090000Y-105472000D03*
X167435000Y-60115000D03*
D16*
X167435000Y-65195000D03*
M02*
