M48
; DRILL file {KiCad (6.0.0)} date Fri Dec 30 16:33:43 2022
; FORMAT={-:-/ absolute / inch / decimal}
; #@! TF.CreationDate,2022-12-30T16:33:43+01:00
; #@! TF.GenerationSoftware,Kicad,Pcbnew,(6.0.0)
; #@! TF.FileFunction,Plated,1,2,PTH
FMAT,2
INCH
; #@! TA.AperFunction,Plated,PTH,ViaDrill
T1C0.0157
; #@! TA.AperFunction,Plated,PTH,ComponentDrill
T2C0.0276
; #@! TA.AperFunction,Plated,PTH,ComponentDrill
T3C0.0394
; #@! TA.AperFunction,Plated,PTH,ComponentDrill
T4C0.0433
; #@! TA.AperFunction,Plated,PTH,ComponentDrill
T5C0.0598
%
G90
G05
T1
X2.977Y-2.4059
X3.1246Y-3.6952
X3.4974Y-2.2124
X3.5433Y-3.1102
X3.5827Y-2.7559
X3.7008Y-2.874
X3.7402Y-3.1102
X3.8189Y-3.1102
X3.8976Y-2.5591
X3.9567Y-3.878
X4.2809Y-2.4407
X4.3518Y-2.5156
T2
X5.4594Y-3.6431
X5.5372Y-1.9152
X5.7594Y-3.6431
X5.8372Y-1.9152
X5.9043Y-2.7691
X5.9043Y-3.0691
X5.9043Y-3.1983
X5.9043Y-3.4983
X5.9043Y-3.6187
X5.9043Y-3.9187
X5.9998Y-1.9187
X6.0264Y-2.7683
X6.0264Y-3.0683
X6.0264Y-3.1975
X6.0264Y-3.4975
X6.0264Y-3.6187
X6.0264Y-3.9187
X6.2998Y-1.9187
X6.3413Y-2.3235
X6.3413Y-2.6235
T3
X2.0803Y-2.2738
X2.0803Y-3.553
X2.1803Y-2.2738
X2.1803Y-3.553
X2.2421Y-3.3134
X2.2803Y-2.2738
X2.2803Y-3.553
X2.3421Y-3.3134
X2.3803Y-2.2738
X2.3803Y-3.553
X2.4421Y-3.3134
X2.4803Y-2.2738
X2.4803Y-3.553
X2.5421Y-3.3134
X2.5803Y-2.2738
X2.5803Y-3.553
X2.6421Y-2.5134
X2.6421Y-3.3134
X2.6803Y-2.2738
X2.6803Y-3.553
X2.7421Y-2.5134
X2.7421Y-3.3134
X2.7803Y-2.2738
X2.7803Y-3.553
X2.8421Y-2.5134
X2.8421Y-3.3134
X2.8803Y-2.2738
X2.8803Y-3.553
X2.9421Y-2.5134
X2.9421Y-3.3134
X3.0421Y-2.5134
X3.0421Y-3.3134
X3.1421Y-2.5134
X3.1421Y-3.3134
X3.1433Y-2.2738
X3.1459Y-3.5531
X3.2421Y-2.5134
X3.2421Y-3.3134
X3.2433Y-2.2738
X3.2459Y-3.5531
X3.3421Y-2.5134
X3.3421Y-3.3134
X3.3433Y-2.2738
X3.3459Y-3.5531
X3.4421Y-2.5134
X3.4421Y-3.3134
X3.4433Y-2.2738
X3.4459Y-3.5531
X3.5421Y-2.5134
X3.5421Y-3.3134
X3.5433Y-2.2738
X3.5459Y-3.5531
X3.6421Y-2.5134
X3.6421Y-3.3134
X3.6433Y-2.2738
X3.6459Y-3.5531
X3.7421Y-2.5134
X3.7421Y-3.3134
X3.7433Y-2.2738
X3.7459Y-3.5531
X3.8433Y-2.2738
X3.8459Y-3.5531
X3.9433Y-2.2738
X3.9459Y-3.5531
X4.1791Y-2.5634
X4.1791Y-2.6634
X4.1791Y-2.7634
X4.1791Y-2.8634
X4.1791Y-2.9634
X4.1791Y-3.0634
X4.1791Y-3.1634
X4.1791Y-3.2634
X4.2876Y-2.1889
X4.2915Y-4.1591
X4.3876Y-2.1889
X4.3915Y-4.1591
X4.4876Y-2.1889
X4.4915Y-4.1591
X4.5876Y-2.1889
X4.5915Y-4.1591
X4.6876Y-2.1889
X4.6915Y-4.1591
X4.7876Y-2.1889
X4.7915Y-4.1591
X4.8876Y-2.1889
X4.8915Y-4.1591
X4.9876Y-2.1889
X4.9915Y-4.1591
X5.0876Y-2.1889
X5.0915Y-4.1591
X5.1876Y-2.1889
X5.1915Y-4.1591
X5.4587Y-3.2093
X5.4587Y-3.3093
X5.4587Y-3.4093
X5.4587Y-3.5093
X5.7587Y-3.2093
X5.7587Y-3.3093
X5.7587Y-3.4093
X5.7587Y-3.5093
T4
X6.1681Y-2.8246
X6.1681Y-2.9148
X6.1681Y-3.005
X6.1681Y-3.2538
X6.1681Y-3.3439
X6.1681Y-3.4341
X6.1681Y-3.6833
X6.1681Y-3.7735
X6.1681Y-3.8636
X6.3217Y-2.7605
X6.3217Y-3.0605
X6.3217Y-3.1983
X6.3217Y-3.4983
X6.3217Y-3.6353
X6.3217Y-3.9353
T5
X5.5878Y-4.1524
X5.588Y-1.675
X5.7878Y-4.1524
X5.788Y-1.675
X5.9878Y-4.1524
X6.0427Y-1.675
X6.1878Y-4.1524
X6.2427Y-1.675
X6.5919Y-1.9289
X6.5919Y-2.1289
X6.5919Y-2.3667
X6.5919Y-2.5667
X6.5935Y-2.8126
X6.5935Y-3.0126
X6.5935Y-3.2496
X6.5935Y-3.4496
X6.5935Y-3.6906
X6.5935Y-3.8906
T0
M30
